# Wavefront OBJ file automatically generated by Tiled2Unity

# Vertices (Count = 36)
v 0 -600 0
v -200 -600 0
v -200 -400 0
v 0 -400 0
v -400 -600 0
v -400 -400 0
v -600 -600 0
v -600 -400 0
v -800 -600 0
v -800 -400 0
v -1000 -600 0
v -1000 -400 0
v 0 -800 0
v -200 -800 0
v -400 -800 0
v -600 -800 0
v -800 -800 0
v -1000 -800 0
v 0 -1000 0
v -200 -1000 0
v -400 -1000 0
v -600 -1000 0
v -800 -1000 0
v -1000 -1000 0
v 0 -200 0
v -200 -200 0
v -200 0 0
v 0 0 0
v -400 -200 0
v -400 0 0
v -600 -200 0
v -600 0 0
v -800 -200 0
v -800 0 0
v -1000 -200 0
v -1000 0 0

# Texture Coorindates (Count = 44)
vt 0.0001220703 0.8079991
vt 0.09225092 0.8079991
vt 0.09225092 1
vt 0.0001220703 1
vt 0.3691258 0.6158761
vt 0.4612546 0.6158761
vt 0.4612546 0.8078771
vt 0.3691258 0.8078771
vt 0.3691258 0.8079991
vt 0.4612546 0.8079991
vt 0.4612546 1
vt 0.3691258 1
vt 0.2485693 0.6056448
vt 0.3726708 0.6056448
vt 0.3726708 0.8027613
vt 0.2485693 0.8027613
vt 0.6212401 0.6056448
vt 0.7453416 0.6056448
vt 0.7453416 0.8027613
vt 0.6212401 0.8027613
vt 0.2485693 0.4084061
vt 0.3726708 0.4084061
vt 0.3726708 0.6055227
vt 0.2485693 0.6055227
vt 0.6212401 0.4084061
vt 0.7453416 0.4084061
vt 0.7453416 0.6055227
vt 0.6212401 0.6055227
vt 0.2485693 0.2111674
vt 0.3726708 0.2111674
vt 0.3726708 0.408284
vt 0.2485693 0.408284
vt 0.6212401 0.2111674
vt 0.7453416 0.2111674
vt 0.7453416 0.408284
vt 0.6212401 0.408284
vt 0.2485693 0.8028834
vt 0.3726708 0.8028834
vt 0.3726708 1
vt 0.2485693 1
vt 0.6212401 0.8028834
vt 0.7453416 0.8028834
vt 0.7453416 1
vt 0.6212401 1

# Normal
vn 0 0 -1

# Groups (Count = 4)
g mesh_[00]_[00]
f  1/1/1  2/2/1  3/3/1  4/4/1 
f  2/1/1  5/2/1  6/3/1  3/4/1 
f  5/1/1  7/2/1  8/3/1  6/4/1 
f  7/5/1  9/6/1  10/7/1  8/8/1 
f  9/1/1  11/2/1  12/3/1  10/4/1 
f  13/1/1  14/2/1  2/3/1  1/4/1 
f  14/9/1  15/10/1  5/11/1  2/12/1 
f  15/1/1  16/2/1  7/3/1  5/4/1 
f  16/1/1  17/2/1  9/3/1  7/4/1 
f  17/1/1  18/2/1  11/3/1  9/4/1 
g mesh_[00]_[02]
f  19/13/1  20/14/1  14/15/1  13/16/1 
f  20/13/1  21/14/1  15/15/1  14/16/1 
f  21/13/1  22/14/1  16/15/1  15/16/1 
f  22/17/1  23/18/1  17/19/1  16/20/1 
f  23/17/1  24/18/1  18/19/1  17/20/1 
g mesh_[01]_[02]
f  25/21/1  26/22/1  27/23/1  28/24/1 
f  26/21/1  29/22/1  30/23/1  27/24/1 
f  29/25/1  31/26/1  32/27/1  30/28/1 
f  31/25/1  33/26/1  34/27/1  32/28/1 
f  33/25/1  35/26/1  36/27/1  34/28/1 
f  4/29/1  3/30/1  26/31/1  25/32/1 
f  3/29/1  6/30/1  29/31/1  26/32/1 
f  6/33/1  8/34/1  31/35/1  29/36/1 
f  8/33/1  10/34/1  33/35/1  31/36/1 
f  10/33/1  12/34/1  35/35/1  33/36/1 
f  19/13/1  20/14/1  14/15/1  13/16/1 
f  20/13/1  21/14/1  15/15/1  14/16/1 
f  21/17/1  22/18/1  16/19/1  15/20/1 
f  22/17/1  23/18/1  17/19/1  16/20/1 
f  23/17/1  24/18/1  18/19/1  17/20/1 
g mesh_[02]_[02]
f  13/37/1  14/38/1  2/39/1  1/40/1 
f  14/37/1  15/38/1  5/39/1  2/40/1 
f  15/41/1  16/42/1  7/43/1  5/44/1 
f  16/41/1  17/42/1  9/43/1  7/44/1 
f  17/41/1  18/42/1  11/43/1  9/44/1 
f  19/13/1  20/14/1  14/15/1  13/16/1 
f  20/13/1  21/14/1  15/15/1  14/16/1 
f  21/13/1  22/14/1  16/15/1  15/16/1 
f  22/13/1  23/14/1  17/15/1  16/16/1 
f  23/13/1  24/14/1  18/15/1  17/16/1 
