# Wavefront OBJ file automatically generated by Tiled2Unity

# Vertices (Count = 117)
v -600 -200 0
v -800 -200 0
v -800 0 0
v -600 0 0
v -1000 -200 0
v -1000 0 0
v -1200 -200 0
v -1200 0 0
v -1400 -200 0
v -1400 0 0
v -1600 -200 0
v -1600 0 0
v -600 -400 0
v -800 -400 0
v -1000 -400 0
v -1200 -400 0
v -1400 -400 0
v -1600 -400 0
v -200 -600 0
v -400 -600 0
v -400 -400 0
v -200 -400 0
v -600 -600 0
v -800 -600 0
v -1000 -600 0
v -1200 -600 0
v -1400 -600 0
v -1600 -600 0
v -1800 -600 0
v -1800 -400 0
v -2000 -600 0
v -2000 -400 0
v -2200 -600 0
v -2200 -400 0
v -200 -800 0
v -400 -800 0
v -600 -800 0
v -800 -800 0
v -1000 -800 0
v -1200 -800 0
v -1400 -800 0
v -1600 -800 0
v -1800 -800 0
v -2000 -800 0
v -2200 -800 0
v 0 -1000 0
v -200 -1000 0
v 0 -800 0
v -400 -1000 0
v -600 -1000 0
v -800 -1000 0
v -1000 -1000 0
v -1200 -1000 0
v -1400 -1000 0
v -1600 -1000 0
v -1800 -1000 0
v -2000 -1000 0
v -2200 -1000 0
v -2400 -1000 0
v -2400 -800 0
v 0 -1200 0
v -200 -1200 0
v -400 -1200 0
v -600 -1200 0
v -800 -1200 0
v -1000 -1200 0
v -1200 -1200 0
v -1400 -1200 0
v -1600 -1200 0
v -1800 -1200 0
v -2000 -1200 0
v -2200 -1200 0
v -2400 -1200 0
v -200 -1400 0
v -400 -1400 0
v -600 -1400 0
v -800 -1400 0
v -1000 -1400 0
v -1200 -1400 0
v -1400 -1400 0
v -1600 -1400 0
v -1800 -1400 0
v -2000 -1400 0
v -2200 -1400 0
v -200 -1600 0
v -400 -1600 0
v -600 -1600 0
v -800 -1600 0
v -1000 -1600 0
v -1200 -1600 0
v -1400 -1600 0
v -1600 -1600 0
v -1800 -1600 0
v -2000 -1600 0
v -200 -200 0
v -400 -200 0
v -400 0 0
v -200 0 0
v -1800 -200 0
v -1800 0 0
v -2000 -200 0
v -2000 0 0
v -2200 -200 0
v -2200 0 0
v 0 -600 0
v 0 -400 0
v -2400 -600 0
v -2400 -400 0
v 0 -200 0
v 0 0 0
v -2400 -200 0
v -2400 0 0
v 0 -1400 0
v -2400 -1400 0
v 0 -1600 0
v -2200 -1600 0
v -2400 -1600 0

# Texture Coorindates (Count = 236)
vt 0.0001220703 0.8079991
vt 0.09225092 0.8079991
vt 0.09225092 1
vt 0.0001220703 1
vt 0.3691258 0.03950728
vt 0.4612546 0.03950728
vt 0.4612546 0.2315082
vt 0.3691258 0.2315082
vt 0.09237299 0.8079991
vt 0.1845018 0.8079991
vt 0.1845018 1
vt 0.09237299 1
vt 0.1846239 0.8079991
vt 0.2767528 0.8079991
vt 0.2767528 1
vt 0.1846239 1
vt 0.3691258 0.8079991
vt 0.4612546 0.8079991
vt 0.4612546 1
vt 0.3691258 1
vt 0.0001220703 0.6158761
vt 0.09225092 0.6158761
vt 0.09225092 0.8078771
vt 0.0001220703 0.8078771
vt 0.09237299 0.6158761
vt 0.1845018 0.6158761
vt 0.1845018 0.8078771
vt 0.09237299 0.8078771
vt 0.1846239 0.6158761
vt 0.2767528 0.6158761
vt 0.2767528 0.8078771
vt 0.1846239 0.8078771
vt 0.2768748 0.6158761
vt 0.3690037 0.6158761
vt 0.3690037 0.8078771
vt 0.2768748 0.8078771
vt 0.3691258 0.6158761
vt 0.4612546 0.6158761
vt 0.4612546 0.8078771
vt 0.3691258 0.8078771
vt 0.09237299 0.03950728
vt 0.1845018 0.03950728
vt 0.1845018 0.2315082
vt 0.09237299 0.2315082
vt 0.2768748 0.8079991
vt 0.3690037 0.8079991
vt 0.3690037 1
vt 0.2768748 1
vt 0.1846239 0.4237532
vt 0.2767528 0.4237532
vt 0.2767528 0.6157541
vt 0.1846239 0.6157541
vt 0.2768748 0.4237532
vt 0.3690037 0.4237532
vt 0.3690037 0.6157541
vt 0.2768748 0.6157541
vt 0.0001220703 0.4237532
vt 0.09225092 0.4237532
vt 0.09225092 0.6157541
vt 0.0001220703 0.6157541
vt 0.09237299 0.4237532
vt 0.1845018 0.4237532
vt 0.1845018 0.6157541
vt 0.09237299 0.6157541
vt 0.0001220703 0.2316302
vt 0.09225092 0.2316302
vt 0.09225092 0.4236311
vt 0.0001220703 0.4236311
vt 0.09237299 0.2316302
vt 0.1845018 0.2316302
vt 0.1845018 0.4236311
vt 0.09237299 0.4236311
vt 0.1846239 0.2316302
vt 0.2767528 0.2316302
vt 0.2767528 0.4236311
vt 0.1846239 0.4236311
vt 0.2768748 0.2316302
vt 0.3690037 0.2316302
vt 0.3690037 0.4236311
vt 0.2768748 0.4236311
vt 0.1243457 0.5860434
vt 0.2484472 0.5860434
vt 0.2484472 0.7239475
vt 0.1243457 0.7239475
vt 0.2485693 0.5860434
vt 0.3726708 0.5860434
vt 0.3726708 0.7239475
vt 0.2485693 0.7239475
vt 0.3727929 0.5860434
vt 0.4968944 0.5860434
vt 0.4968944 0.7239475
vt 0.3727929 0.7239475
vt 0.4970165 0.5860434
vt 0.621118 0.5860434
vt 0.621118 0.7239475
vt 0.4970165 0.7239475
vt 0.6212401 0.5860434
vt 0.7453416 0.5860434
vt 0.7453416 0.7239475
vt 0.6212401 0.7239475
vt 0.7454637 0.5860434
vt 0.8695652 0.5860434
vt 0.8695652 0.7239475
vt 0.7454637 0.7239475
vt 0.1243457 0.4480172
vt 0.2484472 0.4480172
vt 0.2484472 0.5859213
vt 0.1243457 0.5859213
vt 0.2485693 0.4480172
vt 0.3726708 0.4480172
vt 0.3726708 0.5859213
vt 0.2485693 0.5859213
vt 0.3727929 0.4480172
vt 0.4968944 0.4480172
vt 0.4968944 0.5859213
vt 0.3727929 0.5859213
vt 0.4970165 0.4480172
vt 0.621118 0.4480172
vt 0.621118 0.5859213
vt 0.4970165 0.5859213
vt 0.6212401 0.4480172
vt 0.7453416 0.4480172
vt 0.7453416 0.5859213
vt 0.6212401 0.5859213
vt 0.7454637 0.4480172
vt 0.8695652 0.4480172
vt 0.8695652 0.5859213
vt 0.7454637 0.5859213
vt 0.6251221 0.3334554
vt 0.75 0.3334554
vt 0.75 0.5555556
vt 0.6251221 0.5555556
vt 0.8751221 0.5556777
vt 1 0.5556777
vt 1 0.7777778
vt 0.8751221 0.7777778
vt 0.2501221 0.3334554
vt 0.375 0.3334554
vt 0.375 0.5555556
vt 0.2501221 0.5555556
vt 0.0001220703 0.5556777
vt 0.125 0.5556777
vt 0.125 0.7777778
vt 0.0001220703 0.7777778
vt 0.1251221 0.3334554
vt 0.25 0.3334554
vt 0.25 0.5555556
vt 0.1251221 0.5555556
vt 0.0001220703 0.3334554
vt 0.125 0.3334554
vt 0.125 0.5555556
vt 0.0001220703 0.5555556
vt 0.6251221 0.1112332
vt 0.75 0.1112332
vt 0.75 0.3333333
vt 0.6251221 0.3333333
vt 0.2501221 0.1112332
vt 0.375 0.1112332
vt 0.375 0.3333333
vt 0.2501221 0.3333333
vt 0.0001220703 0.7240696
vt 0.1242236 0.7240696
vt 0.1242236 0.8619738
vt 0.0001220703 0.8619738
vt 0.2485693 0.1719647
vt 0.3726708 0.1719647
vt 0.3726708 0.3098689
vt 0.2485693 0.3098689
vt 0.3727929 0.3099909
vt 0.4968944 0.3099909
vt 0.4968944 0.4478951
vt 0.3727929 0.4478951
vt 0.4970165 0.3099909
vt 0.621118 0.3099909
vt 0.621118 0.4478951
vt 0.4970165 0.4478951
vt 0.3727929 0.1719647
vt 0.4968944 0.1719647
vt 0.4968944 0.3098689
vt 0.3727929 0.3098689
vt 0.1243457 0.3099909
vt 0.2484472 0.3099909
vt 0.2484472 0.4478951
vt 0.1243457 0.4478951
vt 0.7454637 0.3099909
vt 0.8695652 0.3099909
vt 0.8695652 0.4478951
vt 0.7454637 0.4478951
vt 0.2485693 0.8620958
vt 0.3726708 0.8620958
vt 0.3726708 1
vt 0.2485693 1
vt 0.3727929 0.8620958
vt 0.4968944 0.8620958
vt 0.4968944 1
vt 0.3727929 1
vt 0.4970165 0.8620958
vt 0.621118 0.8620958
vt 0.621118 1
vt 0.4970165 1
vt 0.6212401 0.8620958
vt 0.7453416 0.8620958
vt 0.7453416 1
vt 0.6212401 1
vt 0.2485693 0.7240696
vt 0.3726708 0.7240696
vt 0.3726708 0.8619738
vt 0.2485693 0.8619738
vt 0.2485693 0.3099909
vt 0.3726708 0.3099909
vt 0.3726708 0.4478951
vt 0.2485693 0.4478951
vt 0.6212401 0.3099909
vt 0.7453416 0.3099909
vt 0.7453416 0.4478951
vt 0.6212401 0.4478951
vt 0.6212401 0.7240696
vt 0.7453416 0.7240696
vt 0.7453416 0.8619738
vt 0.6212401 0.8619738
vt 0.1243457 0.7240696
vt 0.2484472 0.7240696
vt 0.2484472 0.8619738
vt 0.1243457 0.8619738
vt 0.3727929 0.7240696
vt 0.4968944 0.7240696
vt 0.4968944 0.8619738
vt 0.3727929 0.8619738
vt 0.4970165 0.7240696
vt 0.621118 0.7240696
vt 0.621118 0.8619738
vt 0.4970165 0.8619738
vt 0.7454637 0.7240696
vt 0.8695652 0.7240696
vt 0.8695652 0.8619738
vt 0.7454637 0.8619738

# Normal
vn 0 0 -1

# Groups (Count = 4)
g mesh_[00]_[00]
f  1/1/1  2/2/1  3/3/1  4/4/1 
f  2/1/1  5/2/1  6/3/1  3/4/1 
f  5/1/1  7/2/1  8/3/1  6/4/1 
f  7/1/1  9/2/1  10/3/1  8/4/1 
f  9/1/1  11/2/1  12/3/1  10/4/1 
f  13/1/1  14/2/1  2/3/1  1/4/1 
f  14/1/1  15/2/1  5/3/1  2/4/1 
f  15/1/1  16/2/1  7/3/1  5/4/1 
f  16/1/1  17/2/1  9/3/1  7/4/1 
f  17/1/1  18/2/1  11/3/1  9/4/1 
f  19/1/1  20/2/1  21/3/1  22/4/1 
f  20/5/1  23/6/1  13/7/1  21/8/1 
f  23/1/1  24/2/1  14/3/1  13/4/1 
f  24/9/1  25/10/1  15/11/1  14/12/1 
f  25/13/1  26/14/1  16/15/1  15/16/1 
f  26/1/1  27/2/1  17/3/1  16/4/1 
f  27/17/1  28/18/1  18/19/1  17/20/1 
f  28/1/1  29/2/1  30/3/1  18/4/1 
f  29/5/1  31/6/1  32/7/1  30/8/1 
f  31/1/1  33/2/1  34/3/1  32/4/1 
f  35/1/1  36/2/1  20/3/1  19/4/1 
f  36/17/1  37/18/1  23/19/1  20/20/1 
f  37/21/1  38/22/1  24/23/1  23/24/1 
f  38/25/1  39/26/1  25/27/1  24/28/1 
f  39/29/1  40/30/1  26/31/1  25/32/1 
f  40/33/1  41/34/1  27/35/1  26/36/1 
f  41/37/1  42/38/1  28/39/1  27/40/1 
f  42/1/1  43/2/1  29/3/1  28/4/1 
f  43/1/1  44/2/1  31/3/1  29/4/1 
f  44/1/1  45/2/1  33/3/1  31/4/1 
f  46/1/1  47/2/1  35/3/1  48/4/1 
f  47/41/1  49/42/1  36/43/1  35/44/1 
f  49/21/1  50/22/1  37/23/1  36/24/1 
f  50/25/1  51/26/1  38/27/1  37/28/1 
f  51/45/1  52/46/1  39/47/1  38/48/1 
f  52/49/1  53/50/1  40/51/1  39/52/1 
f  53/53/1  54/54/1  41/55/1  40/56/1 
f  54/1/1  55/2/1  42/3/1  41/4/1 
f  55/1/1  56/2/1  43/3/1  42/4/1 
f  56/17/1  57/18/1  44/19/1  43/20/1 
f  57/1/1  58/2/1  45/3/1  44/4/1 
f  58/1/1  59/2/1  60/3/1  45/4/1 
f  61/1/1  62/2/1  47/3/1  46/4/1 
f  62/1/1  63/2/1  49/3/1  47/4/1 
f  63/57/1  64/58/1  50/59/1  49/60/1 
f  64/61/1  65/62/1  51/63/1  50/64/1 
f  65/49/1  66/50/1  52/51/1  51/52/1 
f  66/53/1  67/54/1  53/55/1  52/56/1 
f  67/17/1  68/18/1  54/19/1  53/20/1 
f  68/9/1  69/10/1  55/11/1  54/12/1 
f  69/13/1  70/14/1  56/15/1  55/16/1 
f  70/41/1  71/42/1  57/43/1  56/44/1 
f  71/1/1  72/2/1  58/3/1  57/4/1 
f  72/1/1  73/2/1  59/3/1  58/4/1 
f  74/1/1  75/2/1  63/3/1  62/4/1 
f  75/65/1  76/66/1  64/67/1  63/68/1 
f  76/69/1  77/70/1  65/71/1  64/72/1 
f  77/73/1  78/74/1  66/75/1  65/76/1 
f  78/77/1  79/78/1  67/79/1  66/80/1 
f  79/9/1  80/10/1  68/11/1  67/12/1 
f  80/25/1  81/26/1  69/27/1  68/28/1 
f  81/29/1  82/30/1  70/31/1  69/32/1 
f  82/33/1  83/34/1  71/35/1  70/36/1 
f  83/1/1  84/2/1  72/3/1  71/4/1 
f  85/21/1  86/22/1  75/23/1  74/24/1 
f  86/33/1  87/34/1  76/35/1  75/36/1 
f  87/37/1  88/38/1  77/39/1  76/40/1 
f  88/1/1  89/2/1  78/3/1  77/4/1 
f  89/21/1  90/22/1  79/23/1  78/24/1 
f  90/25/1  91/26/1  80/27/1  79/28/1 
f  91/29/1  92/30/1  81/31/1  80/32/1 
f  92/33/1  93/34/1  82/35/1  81/36/1 
f  93/53/1  94/54/1  83/55/1  82/56/1 
g mesh_[01]_[02]
f  95/81/1  96/82/1  97/83/1  98/84/1 
f  96/85/1  1/86/1  4/87/1  97/88/1 
f  1/85/1  2/86/1  3/87/1  4/88/1 
f  2/89/1  5/90/1  6/91/1  3/92/1 
f  9/93/1  11/94/1  12/95/1  10/96/1 
f  11/97/1  99/98/1  100/99/1  12/100/1 
f  99/97/1  101/98/1  102/99/1  100/100/1 
f  101/101/1  103/102/1  104/103/1  102/104/1 
f  22/105/1  21/106/1  96/107/1  95/108/1 
f  21/109/1  13/110/1  1/111/1  96/112/1 
f  13/109/1  14/110/1  2/111/1  1/112/1 
f  14/113/1  15/114/1  5/115/1  2/116/1 
f  17/117/1  18/118/1  11/119/1  9/120/1 
f  18/121/1  30/122/1  99/123/1  11/124/1 
f  30/121/1  32/122/1  101/123/1  99/124/1 
f  32/125/1  34/126/1  103/127/1  101/128/1 
f  105/85/1  19/86/1  22/87/1  106/88/1 
f  19/89/1  20/90/1  21/91/1  22/92/1 
f  31/93/1  33/94/1  34/95/1  32/96/1 
f  33/97/1  107/98/1  108/99/1  34/100/1 
f  48/109/1  35/110/1  19/111/1  105/112/1 
f  35/113/1  36/114/1  20/115/1  19/116/1 
f  44/117/1  45/118/1  33/119/1  31/120/1 
f  45/121/1  60/122/1  107/123/1  33/124/1 
g mesh_[02]_[03]
f  96/129/1  1/130/1  4/131/1  97/132/1 
f  1/133/1  2/134/1  3/135/1  4/136/1 
f  11/137/1  99/138/1  100/139/1  12/140/1 
f  99/141/1  101/142/1  102/143/1  100/144/1 
f  22/145/1  21/146/1  96/147/1  95/148/1 
f  21/149/1  13/150/1  1/151/1  96/152/1 
f  13/153/1  14/154/1  2/155/1  1/156/1 
f  18/157/1  30/158/1  99/159/1  11/160/1 
f  30/149/1  32/150/1  101/151/1  99/152/1 
f  32/145/1  34/146/1  103/147/1  101/148/1 
g mesh_[03]_[02]
f  109/161/1  95/162/1  98/163/1  110/164/1 
f  96/165/1  1/166/1  4/167/1  97/168/1 
f  1/165/1  2/166/1  3/167/1  4/168/1 
f  2/169/1  5/170/1  6/171/1  3/172/1 
f  9/173/1  11/174/1  12/175/1  10/176/1 
f  11/177/1  99/178/1  100/179/1  12/180/1 
f  99/177/1  101/178/1  102/179/1  100/180/1 
f  103/161/1  111/162/1  112/163/1  104/164/1 
f  106/161/1  22/162/1  95/163/1  109/164/1 
f  22/181/1  21/182/1  96/183/1  95/184/1 
f  32/185/1  34/186/1  103/187/1  101/188/1 
f  34/161/1  108/162/1  111/163/1  103/164/1 
f  105/165/1  19/166/1  22/167/1  106/168/1 
f  19/169/1  20/170/1  21/171/1  22/172/1 
f  31/173/1  33/174/1  34/175/1  32/176/1 
f  33/97/1  107/98/1  108/99/1  34/100/1 
f  61/189/1  62/190/1  47/191/1  46/192/1 
f  62/193/1  63/194/1  49/195/1  47/196/1 
f  71/197/1  72/198/1  58/199/1  57/200/1 
f  72/201/1  73/202/1  59/203/1  58/204/1 
f  113/205/1  74/206/1  62/207/1  61/208/1 
f  74/209/1  75/210/1  63/211/1  62/212/1 
f  75/189/1  76/190/1  64/191/1  63/192/1 
f  76/189/1  77/190/1  65/191/1  64/192/1 
f  77/193/1  78/194/1  66/195/1  65/196/1 
f  80/197/1  81/198/1  69/199/1  68/200/1 
f  81/201/1  82/202/1  70/203/1  69/204/1 
f  82/201/1  83/202/1  71/203/1  70/204/1 
f  83/213/1  84/214/1  72/215/1  71/216/1 
f  84/217/1  114/218/1  73/219/1  72/220/1 
f  115/161/1  85/162/1  74/163/1  113/164/1 
f  85/221/1  86/222/1  75/223/1  74/224/1 
f  86/205/1  87/206/1  76/207/1  75/208/1 
f  87/205/1  88/206/1  77/207/1  76/208/1 
f  88/225/1  89/226/1  78/227/1  77/228/1 
f  91/229/1  92/230/1  81/231/1  80/232/1 
f  92/217/1  93/218/1  82/219/1  81/220/1 
f  93/217/1  94/218/1  83/219/1  82/220/1 
f  94/233/1  116/234/1  84/235/1  83/236/1 
f  116/161/1  117/162/1  114/163/1  84/164/1 
