# Wavefront OBJ file automatically generated by Tiled2Unity

# Vertices (Count = 121)
v -600 -200 0
v -800 -200 0
v -800 0 0
v -600 0 0
v -1000 -200 0
v -1000 0 0
v -1200 -200 0
v -1200 0 0
v -1400 -200 0
v -1400 0 0
v -600 -400 0
v -800 -400 0
v -1000 -400 0
v -1200 -400 0
v -1400 -400 0
v -200 -600 0
v -400 -600 0
v -400 -400 0
v -200 -400 0
v -600 -600 0
v -800 -600 0
v -1000 -600 0
v -1200 -600 0
v -1400 -600 0
v -1600 -600 0
v -1600 -400 0
v -1800 -600 0
v -1800 -400 0
v -200 -800 0
v -400 -800 0
v -600 -800 0
v -800 -800 0
v -1000 -800 0
v -1200 -800 0
v -1400 -800 0
v -1600 -800 0
v -1800 -800 0
v 0 -1000 0
v -200 -1000 0
v 0 -800 0
v -400 -1000 0
v -600 -1000 0
v -800 -1000 0
v -1000 -1000 0
v -1200 -1000 0
v -1400 -1000 0
v -1600 -1000 0
v -1800 -1000 0
v -2000 -1000 0
v -2000 -800 0
v 0 -1200 0
v -200 -1200 0
v -400 -1200 0
v -600 -1200 0
v -800 -1200 0
v -1000 -1200 0
v -1200 -1200 0
v -1400 -1200 0
v -1600 -1200 0
v -1800 -1200 0
v -2000 -1200 0
v -200 -1400 0
v -400 -1400 0
v -600 -1400 0
v -800 -1400 0
v -1000 -1400 0
v -1200 -1400 0
v -1400 -1400 0
v -1600 -1400 0
v -1800 -1400 0
v -200 -1600 0
v -400 -1600 0
v -600 -1600 0
v -800 -1600 0
v -1000 -1600 0
v -1200 -1600 0
v -1400 -1600 0
v -1600 -1600 0
v -1800 -1600 0
v -200 -1800 0
v -400 -1800 0
v -600 -1800 0
v -800 -1800 0
v -1000 -1800 0
v -1200 -1800 0
v -1400 -1800 0
v -1600 -1800 0
v -1800 -1800 0
v -600 -2000 0
v -800 -2000 0
v -1000 -2000 0
v -1200 -2000 0
v -1400 -2000 0
v -1600 -2000 0
v -1800 -2000 0
v 0 -200 0
v -200 -200 0
v -200 0 0
v 0 0 0
v -400 -200 0
v -400 0 0
v -1600 -200 0
v -1600 0 0
v -1800 -200 0
v -1800 0 0
v -2000 -200 0
v -2000 0 0
v 0 -400 0
v -2000 -400 0
v 0 -600 0
v -2000 -600 0
v 0 -1400 0
v -2000 -1400 0
v 0 -1600 0
v -2000 -1600 0
v 0 -1800 0
v -2000 -1800 0
v 0 -2000 0
v -200 -2000 0
v -400 -2000 0
v -2000 -2000 0

# Texture Coorindates (Count = 207)
vt 0.0001220703 0.8079991
vt 0.09225092 0.8079991
vt 0.09225092 1
vt 0.0001220703 1
vt 0.3691258 0.03950728
vt 0.4612546 0.03950728
vt 0.4612546 0.2315082
vt 0.3691258 0.2315082
vt 0.09237299 0.8079991
vt 0.1845018 0.8079991
vt 0.1845018 1
vt 0.09237299 1
vt 0.1846239 0.8079991
vt 0.2767528 0.8079991
vt 0.2767528 1
vt 0.1846239 1
vt 0.3691258 0.8079991
vt 0.4612546 0.8079991
vt 0.4612546 1
vt 0.3691258 1
vt 0.0001220703 0.6158761
vt 0.09225092 0.6158761
vt 0.09225092 0.8078771
vt 0.0001220703 0.8078771
vt 0.09237299 0.6158761
vt 0.1845018 0.6158761
vt 0.1845018 0.8078771
vt 0.09237299 0.8078771
vt 0.1846239 0.6158761
vt 0.2767528 0.6158761
vt 0.2767528 0.8078771
vt 0.1846239 0.8078771
vt 0.2768748 0.6158761
vt 0.3690037 0.6158761
vt 0.3690037 0.8078771
vt 0.2768748 0.8078771
vt 0.09237299 0.03950728
vt 0.1845018 0.03950728
vt 0.1845018 0.2315082
vt 0.09237299 0.2315082
vt 0.2768748 0.8079991
vt 0.3690037 0.8079991
vt 0.3690037 1
vt 0.2768748 1
vt 0.1846239 0.4237532
vt 0.2767528 0.4237532
vt 0.2767528 0.6157541
vt 0.1846239 0.6157541
vt 0.2768748 0.4237532
vt 0.3690037 0.4237532
vt 0.3690037 0.6157541
vt 0.2768748 0.6157541
vt 0.0001220703 0.4237532
vt 0.09225092 0.4237532
vt 0.09225092 0.6157541
vt 0.0001220703 0.6157541
vt 0.09237299 0.4237532
vt 0.1845018 0.4237532
vt 0.1845018 0.6157541
vt 0.09237299 0.6157541
vt 0.0001220703 0.2316302
vt 0.09225092 0.2316302
vt 0.09225092 0.4236311
vt 0.0001220703 0.4236311
vt 0.09237299 0.2316302
vt 0.1845018 0.2316302
vt 0.1845018 0.4236311
vt 0.09237299 0.4236311
vt 0.1846239 0.2316302
vt 0.2767528 0.2316302
vt 0.2767528 0.4236311
vt 0.1846239 0.4236311
vt 0.2768748 0.2316302
vt 0.3690037 0.2316302
vt 0.3690037 0.4236311
vt 0.2768748 0.4236311
vt 0.3691258 0.6158761
vt 0.4612546 0.6158761
vt 0.4612546 0.8078771
vt 0.3691258 0.8078771
vt 0.0001220703 0.6056448
vt 0.1242236 0.6056448
vt 0.1242236 0.8027613
vt 0.0001220703 0.8027613
vt 0.1243457 0.4084061
vt 0.2484472 0.4084061
vt 0.2484472 0.6055227
vt 0.1243457 0.6055227
vt 0.2485693 0.4084061
vt 0.3726708 0.4084061
vt 0.3726708 0.6055227
vt 0.2485693 0.6055227
vt 0.3727929 0.4084061
vt 0.4968944 0.4084061
vt 0.4968944 0.6055227
vt 0.3727929 0.6055227
vt 0.4970165 0.4084061
vt 0.621118 0.4084061
vt 0.621118 0.6055227
vt 0.4970165 0.6055227
vt 0.6212401 0.4084061
vt 0.7453416 0.4084061
vt 0.7453416 0.6055227
vt 0.6212401 0.6055227
vt 0.7454637 0.4084061
vt 0.8695652 0.4084061
vt 0.8695652 0.6055227
vt 0.7454637 0.6055227
vt 0.1243457 0.2111674
vt 0.2484472 0.2111674
vt 0.2484472 0.408284
vt 0.1243457 0.408284
vt 0.2485693 0.2111674
vt 0.3726708 0.2111674
vt 0.3726708 0.408284
vt 0.2485693 0.408284
vt 0.3727929 0.2111674
vt 0.4968944 0.2111674
vt 0.4968944 0.408284
vt 0.3727929 0.408284
vt 0.4970165 0.2111674
vt 0.621118 0.2111674
vt 0.621118 0.408284
vt 0.4970165 0.408284
vt 0.6212401 0.2111674
vt 0.7453416 0.2111674
vt 0.7453416 0.408284
vt 0.6212401 0.408284
vt 0.7454637 0.2111674
vt 0.8695652 0.2111674
vt 0.8695652 0.408284
vt 0.7454637 0.408284
vt 0.2485693 0.6056448
vt 0.3726708 0.6056448
vt 0.3726708 0.8027613
vt 0.2485693 0.8027613
vt 0.6212401 0.6056448
vt 0.7453416 0.6056448
vt 0.7453416 0.8027613
vt 0.6212401 0.8027613
vt 0.0001220703 0.8028834
vt 0.1242236 0.8028834
vt 0.1242236 1
vt 0.7454637 0.6056448
vt 0.8695652 0.6056448
vt 0.8695652 0.8027613
vt 0.7454637 0.8027613
vt 0.1243457 0.6056448
vt 0.2484472 0.6056448
vt 0.2484472 0.8027613
vt 0.1243457 0.8027613
vt 0.3727929 0.01392878
vt 0.4968944 0.01392878
vt 0.4968944 0.2110454
vt 0.3727929 0.2110454
vt 0.4970165 0.01392878
vt 0.621118 0.01392878
vt 0.621118 0.2110454
vt 0.4970165 0.2110454
vt 0.1243457 0.01392878
vt 0.2484472 0.01392878
vt 0.2484472 0.2110454
vt 0.1243457 0.2110454
vt 0.7454637 0.01392878
vt 0.8695652 0.01392878
vt 0.8695652 0.2110454
vt 0.7454637 0.2110454
vt 0.2485693 0.8028834
vt 0.3726708 0.8028834
vt 0.3726708 1
vt 0.2485693 1
vt 0.3727929 0.8028834
vt 0.4968944 0.8028834
vt 0.4968944 1
vt 0.3727929 1
vt 0.4970165 0.8028834
vt 0.621118 0.8028834
vt 0.621118 1
vt 0.4970165 1
vt 0.6212401 0.8028834
vt 0.7453416 0.8028834
vt 0.7453416 1
vt 0.6212401 1
vt 0.3727929 0.6056448
vt 0.4968944 0.6056448
vt 0.4968944 0.8027613
vt 0.3727929 0.8027613
vt 0.4970165 0.6056448
vt 0.621118 0.6056448
vt 0.621118 0.8027613
vt 0.4970165 0.8027613
vt 0.8696873 0.6056448
vt 0.9937888 0.6056448
vt 0.9937888 0.8027613
vt 0.8696873 0.8027613
vt 0.7454637 0.8028834
vt 0.8695652 0.8028834
vt 0.8695652 1
vt 0.7454637 1
vt 0.1243457 0.8028834
vt 0.2484472 0.8028834
vt 0.2484472 1
vt 0.1243457 1
vt 0.6212401 0.01392878
vt 0.7453416 0.01392878
vt 0.7453416 0.2110454
vt 0.6212401 0.2110454

# Normal
vn 0 0 -1

# Groups (Count = 3)
g mesh_[00]_[00]
f  1/1/1  2/2/1  3/3/1  4/4/1 
f  2/1/1  5/2/1  6/3/1  3/4/1 
f  5/1/1  7/2/1  8/3/1  6/4/1 
f  7/1/1  9/2/1  10/3/1  8/4/1 
f  11/1/1  12/2/1  2/3/1  1/4/1 
f  12/1/1  13/2/1  5/3/1  2/4/1 
f  13/1/1  14/2/1  7/3/1  5/4/1 
f  14/1/1  15/2/1  9/3/1  7/4/1 
f  16/1/1  17/2/1  18/3/1  19/4/1 
f  17/5/1  20/6/1  11/7/1  18/8/1 
f  20/1/1  21/2/1  12/3/1  11/4/1 
f  21/9/1  22/10/1  13/11/1  12/12/1 
f  22/13/1  23/14/1  14/15/1  13/16/1 
f  23/1/1  24/2/1  15/3/1  14/4/1 
f  24/17/1  25/18/1  26/19/1  15/20/1 
f  25/1/1  27/2/1  28/3/1  26/4/1 
f  29/1/1  30/2/1  17/3/1  16/4/1 
f  30/17/1  31/18/1  20/19/1  17/20/1 
f  31/21/1  32/22/1  21/23/1  20/24/1 
f  32/25/1  33/26/1  22/27/1  21/28/1 
f  33/29/1  34/30/1  23/31/1  22/32/1 
f  34/33/1  35/34/1  24/35/1  23/36/1 
f  35/1/1  36/2/1  25/3/1  24/4/1 
f  36/1/1  37/2/1  27/3/1  25/4/1 
f  38/1/1  39/2/1  29/3/1  40/4/1 
f  39/37/1  41/38/1  30/39/1  29/40/1 
f  41/21/1  42/22/1  31/23/1  30/24/1 
f  42/25/1  43/26/1  32/27/1  31/28/1 
f  43/41/1  44/42/1  33/43/1  32/44/1 
f  44/45/1  45/46/1  34/47/1  33/48/1 
f  45/49/1  46/50/1  35/51/1  34/52/1 
f  46/1/1  47/2/1  36/3/1  35/4/1 
f  47/1/1  48/2/1  37/3/1  36/4/1 
f  48/1/1  49/2/1  50/3/1  37/4/1 
f  51/1/1  52/2/1  39/3/1  38/4/1 
f  52/1/1  53/2/1  41/3/1  39/4/1 
f  53/53/1  54/54/1  42/55/1  41/56/1 
f  54/57/1  55/58/1  43/59/1  42/60/1 
f  55/45/1  56/46/1  44/47/1  43/48/1 
f  56/49/1  57/50/1  45/51/1  44/52/1 
f  57/17/1  58/18/1  46/19/1  45/20/1 
f  58/1/1  59/2/1  47/3/1  46/4/1 
f  59/1/1  60/2/1  48/3/1  47/4/1 
f  60/1/1  61/2/1  49/3/1  48/4/1 
f  62/1/1  63/2/1  53/3/1  52/4/1 
f  63/61/1  64/62/1  54/63/1  53/64/1 
f  64/65/1  65/66/1  55/67/1  54/68/1 
f  65/69/1  66/70/1  56/71/1  55/72/1 
f  66/73/1  67/74/1  57/75/1  56/76/1 
f  67/9/1  68/10/1  58/11/1  57/12/1 
f  68/13/1  69/14/1  59/15/1  58/16/1 
f  69/1/1  70/2/1  60/3/1  59/4/1 
f  71/21/1  72/22/1  63/23/1  62/24/1 
f  72/33/1  73/34/1  64/35/1  63/36/1 
f  73/77/1  74/78/1  65/79/1  64/80/1 
f  74/1/1  75/2/1  66/3/1  65/4/1 
f  75/21/1  76/22/1  67/23/1  66/24/1 
f  76/25/1  77/26/1  68/27/1  67/28/1 
f  77/29/1  78/30/1  69/31/1  68/32/1 
f  78/33/1  79/34/1  70/35/1  69/36/1 
f  80/53/1  81/54/1  72/55/1  71/56/1 
f  81/49/1  82/50/1  73/51/1  72/52/1 
f  82/37/1  83/38/1  74/39/1  73/40/1 
f  83/1/1  84/2/1  75/3/1  74/4/1 
f  84/53/1  85/54/1  76/55/1  75/56/1 
f  85/57/1  86/58/1  77/59/1  76/60/1 
f  86/45/1  87/46/1  78/47/1  77/48/1 
f  87/49/1  88/50/1  79/51/1  78/52/1 
f  89/1/1  90/2/1  83/3/1  82/4/1 
f  90/17/1  91/18/1  84/19/1  83/20/1 
f  91/61/1  92/62/1  85/63/1  84/64/1 
f  92/65/1  93/66/1  86/67/1  85/68/1 
f  93/69/1  94/70/1  87/71/1  86/72/1 
f  94/73/1  95/74/1  88/75/1  87/76/1 
g mesh_[01]_[02]
f  96/81/1  97/82/1  98/83/1  99/84/1 
f  97/85/1  100/86/1  101/87/1  98/88/1 
f  100/89/1  1/90/1  4/91/1  101/92/1 
f  1/93/1  2/94/1  3/95/1  4/96/1 
f  7/97/1  9/98/1  10/99/1  8/100/1 
f  9/101/1  102/102/1  103/103/1  10/104/1 
f  102/105/1  104/106/1  105/107/1  103/108/1 
f  104/81/1  106/82/1  107/83/1  105/84/1 
f  108/81/1  19/82/1  97/83/1  96/84/1 
f  19/109/1  18/110/1  100/111/1  97/112/1 
f  18/113/1  11/114/1  1/115/1  100/116/1 
f  11/117/1  12/118/1  2/119/1  1/120/1 
f  14/121/1  15/122/1  9/123/1  7/124/1 
f  15/125/1  26/126/1  102/127/1  9/128/1 
f  26/129/1  28/130/1  104/131/1  102/132/1 
f  28/81/1  109/82/1  106/83/1  104/84/1 
f  110/89/1  16/90/1  19/91/1  108/92/1 
f  16/93/1  17/94/1  18/95/1  19/96/1 
f  25/97/1  27/98/1  28/99/1  26/100/1 
f  27/101/1  111/102/1  109/103/1  28/104/1 
f  40/113/1  29/114/1  16/115/1  110/116/1 
f  29/117/1  30/118/1  17/119/1  16/120/1 
f  36/121/1  37/122/1  27/123/1  25/124/1 
f  37/125/1  50/126/1  111/127/1  27/128/1 
f  112/133/1  62/134/1  52/135/1  51/136/1 
f  70/137/1  113/138/1  61/139/1  60/140/1 
f  114/81/1  71/82/1  62/83/1  112/84/1 
f  79/141/1  115/142/1  113/143/1  70/4/1 
f  116/81/1  80/82/1  71/83/1  114/84/1 
f  87/144/1  88/145/1  79/146/1  78/147/1 
f  88/141/1  117/142/1  115/143/1  79/4/1 
f  118/81/1  119/82/1  80/83/1  116/84/1 
f  119/148/1  120/149/1  81/150/1  80/151/1 
f  120/133/1  89/134/1  82/135/1  81/136/1 
f  93/141/1  94/142/1  87/143/1  86/4/1 
f  94/141/1  95/142/1  88/143/1  87/4/1 
f  95/141/1  121/142/1  117/143/1  88/4/1 
g mesh_[02]_[02]
f  1/152/1  2/153/1  3/154/1  4/155/1 
f  7/156/1  9/157/1  10/158/1  8/159/1 
f  9/101/1  102/102/1  103/103/1  10/104/1 
f  19/160/1  18/161/1  100/162/1  97/163/1 
f  26/164/1  28/165/1  104/166/1  102/167/1 
f  16/152/1  17/153/1  18/154/1  19/155/1 
f  25/156/1  27/157/1  28/158/1  26/159/1 
f  51/168/1  52/169/1  39/170/1  38/171/1 
f  52/172/1  53/173/1  41/174/1  39/175/1 
f  59/176/1  60/177/1  48/178/1  47/179/1 
f  60/180/1  61/181/1  49/182/1  48/183/1 
f  112/133/1  62/134/1  52/135/1  51/136/1 
f  62/184/1  63/185/1  53/186/1  52/187/1 
f  69/188/1  70/189/1  60/190/1  59/191/1 
f  70/137/1  113/138/1  61/139/1  60/140/1 
f  114/192/1  71/193/1  62/194/1  112/195/1 
f  71/160/1  72/161/1  63/162/1  62/163/1 
f  77/176/1  78/177/1  69/178/1  68/179/1 
f  78/196/1  79/197/1  70/198/1  69/199/1 
f  79/192/1  115/193/1  113/194/1  70/195/1 
f  116/192/1  80/193/1  71/194/1  114/195/1 
f  80/200/1  81/201/1  72/202/1  71/203/1 
f  81/168/1  82/169/1  73/170/1  72/171/1 
f  82/172/1  83/173/1  74/174/1  73/175/1 
f  85/176/1  86/177/1  77/178/1  76/179/1 
f  86/204/1  87/205/1  78/206/1  77/207/1 
f  87/144/1  88/145/1  79/146/1  78/147/1 
f  88/192/1  117/193/1  115/194/1  79/195/1 
f  118/192/1  119/193/1  80/194/1  116/195/1 
f  119/148/1  120/149/1  81/150/1  80/151/1 
f  120/133/1  89/134/1  82/135/1  81/136/1 
f  89/184/1  90/185/1  83/186/1  82/187/1 
f  92/188/1  93/189/1  86/190/1  85/191/1 
f  93/144/1  94/145/1  87/146/1  86/147/1 
f  94/192/1  95/193/1  88/194/1  87/195/1 
f  95/192/1  121/193/1  117/194/1  88/195/1 
