# Wavefront OBJ file automatically generated by Tiled2Unity

# Vertices (Count = 15)
v -600 -400 0
v -800 -400 0
v -800 -200 0
v -600 -200 0
v -1000 -400 0
v -1000 -200 0
v -1200 -400 0
v -1200 -200 0
v -1400 -400 0
v -1400 -200 0
v -800 0 0
v -600 0 0
v -1000 0 0
v -1200 0 0
v -1400 0 0

# Texture Coorindates (Count = 16)
vt 0.2485693 0.2111674
vt 0.3726708 0.2111674
vt 0.3726708 0.408284
vt 0.2485693 0.408284
vt 0.6212401 0.2111674
vt 0.7453416 0.2111674
vt 0.7453416 0.408284
vt 0.6212401 0.408284
vt 0.2485693 0.4084061
vt 0.3726708 0.4084061
vt 0.3726708 0.6055227
vt 0.2485693 0.6055227
vt 0.6212401 0.4084061
vt 0.7453416 0.4084061
vt 0.7453416 0.6055227
vt 0.6212401 0.6055227

# Normal
vn 0 0 -1

# Groups (Count = 2)
g mesh_[00]_[02]
f  1/1/1  2/2/1  3/3/1  4/4/1 
f  2/1/1  5/2/1  6/3/1  3/4/1 
f  5/5/1  7/6/1  8/7/1  6/8/1 
f  7/5/1  9/6/1  10/7/1  8/8/1 
g mesh_[01]_[02]
f  4/9/1  3/10/1  11/11/1  12/12/1 
f  3/9/1  6/10/1  13/11/1  11/12/1 
f  6/13/1  8/14/1  14/15/1  13/16/1 
f  8/13/1  10/14/1  15/15/1  14/16/1 
